<svg width="309" height="232" viewBox="0 0 309 232" fill="none" xmlns="http://www.w3.org/2000/svg">
<mask id="mask0_1_1193" style="mask-type:luminance" maskUnits="userSpaceOnUse" x="29" y="3" width="280" height="228">
<path d="M29.6573 112.88L64.5961 230.265L308.633 120.917L272.141 3.29199L29.6573 112.88Z" fill="white"/>
</mask>
<g mask="url(#mask0_1_1193)">
<path d="M29.6573 112.88L49.4797 230.265H29.6573V112.88Z" fill="#BD2426"/>
<path d="M29.6573 89.999L53.3432 230.265H49.4797L29.6573 112.88V89.999Z" fill="#BD2426"/>
<path d="M29.6573 67.1184L57.2067 230.265H53.3432L29.6573 89.999V67.1184Z" fill="#BE2426"/>
<path d="M29.6573 44.2378L61.0702 230.265H57.2067L29.6573 67.1184V44.2378Z" fill="#BF2426"/>
<path d="M29.6573 43.1696L33.2389 42.5713L64.9366 230.265H61.0702L29.6573 44.2377V43.1696Z" fill="#C02526"/>
<path d="M33.239 42.5713L36.9968 41.9438L68.7825 230.157L68.1425 230.265H64.9366L33.239 42.5713Z" fill="#C12526"/>
<path d="M40.7531 41.3145L36.9951 41.9417L68.7805 230.157L72.5386 229.529L40.7531 41.3145Z" fill="#C22526"/>
<path d="M44.5102 40.6872L40.7521 41.3143L72.5376 229.529L76.2956 228.902L44.5102 40.6872Z" fill="#C32526"/>
<path d="M48.2701 40.0597L44.5121 40.6869L76.2975 228.902L80.0556 228.275L48.2701 40.0597Z" fill="#C42626"/>
<path d="M52.0306 39.4348L48.2725 40.062L80.058 228.277L83.816 227.65L52.0306 39.4348Z" fill="#C52626"/>
<path d="M55.7876 38.8075L52.0295 39.4347L83.815 227.65L87.573 227.023L55.7876 38.8075Z" fill="#C62626"/>
<path d="M59.5447 38.1802L55.7866 38.8074L87.5721 227.022L91.3301 226.395L59.5447 38.1802Z" fill="#C72626"/>
<path d="M63.3046 37.5529L59.5466 38.1801L91.332 226.395L95.0901 225.768L63.3046 37.5529Z" fill="#C82626"/>
<path d="M67.0616 36.9254L63.3036 37.5526L95.089 225.768L98.8471 225.14L67.0616 36.9254Z" fill="#C92726"/>
<path d="M70.8187 36.2981L67.0607 36.9253L98.8461 225.14L102.604 224.513L70.8187 36.2981Z" fill="#CA2726"/>
<path d="M74.5758 35.6708L70.8177 36.298L102.603 224.513L106.361 223.886L74.5758 35.6708Z" fill="#CB2726"/>
<path d="M78.3357 35.0435L74.5776 35.6707L106.363 223.886L110.121 223.258L78.3357 35.0435Z" fill="#CC2726"/>
<path d="M82.0928 34.4162L78.3347 35.0433L110.12 223.258L113.878 222.631L82.0928 34.4162Z" fill="#CD2726"/>
<path d="M85.8498 33.7888L82.0917 34.416L113.877 222.631L117.635 222.004L85.8498 33.7888Z" fill="#CE2826"/>
<path d="M89.6073 33.1644L85.8492 33.7916L117.635 222.007L121.393 221.379L89.6073 33.1644Z" fill="#CF2826"/>
<path d="M93.3702 32.5365L89.6121 33.1637L121.398 221.379L125.156 220.752L93.3702 32.5365Z" fill="#D12825"/>
<path d="M97.1272 31.9092L93.3691 32.5364L125.155 220.751L128.913 220.124L97.1272 31.9092Z" fill="#D22825"/>
<path d="M100.884 31.2819L97.1262 31.9091L128.912 220.124L132.67 219.497L100.884 31.2819Z" fill="#D32925"/>
<path d="M104.641 30.6546L100.883 31.2817L132.669 219.497L136.427 218.87L104.641 30.6546Z" fill="#D42925"/>
<path d="M108.401 30.0272L104.643 30.6544L136.429 218.869L140.187 218.242L108.401 30.0272Z" fill="#D52925"/>
<path d="M112.158 29.3999L108.4 30.0271L140.186 218.242L143.944 217.615L112.158 29.3999Z" fill="#D62925"/>
<path d="M115.915 28.7726L112.157 29.3998L143.943 217.615L147.701 216.988L115.915 28.7726Z" fill="#D72925"/>
<path d="M119.672 28.1452L115.914 28.7723L147.7 216.987L151.458 216.36L119.672 28.1452Z" fill="#D82A25"/>
<path d="M123.432 27.5178L119.674 28.145L151.46 216.36L155.218 215.733L123.432 27.5178Z" fill="#D92A25"/>
<path d="M127.19 26.8935L123.432 27.5206L155.217 215.736L158.975 215.108L127.19 26.8935Z" fill="#DA2A25"/>
<path d="M130.947 26.2661L127.189 26.8933L158.974 215.108L162.732 214.481L130.947 26.2661Z" fill="#DB2A25"/>
<path d="M134.707 25.6383L130.949 26.2655L162.734 214.48L166.492 213.853L134.707 25.6383Z" fill="#DC2A25"/>
<path d="M138.467 25.0109L134.709 25.6381L166.494 213.853L170.252 213.226L138.467 25.0109Z" fill="#DD2B25"/>
<path d="M142.224 24.3837L138.466 25.0109L170.251 213.226L174.009 212.599L142.224 24.3837Z" fill="#DE2B25"/>
<path d="M145.981 23.7562L142.223 24.3834L174.008 212.598L177.766 211.971L145.981 23.7562Z" fill="#DF2B25"/>
<path d="M149.738 23.1289L145.98 23.7561L177.765 211.971L181.523 211.344L149.738 23.1289Z" fill="#E02B25"/>
<path d="M153.498 22.4987L149.74 23.1259L181.525 211.341L185.283 210.714L153.498 22.4987Z" fill="#E12C25"/>
<path d="M157.255 21.8714L153.497 22.4985L185.282 210.714L189.04 210.086L157.255 21.8714Z" fill="#E22C25"/>
<path d="M161.012 21.244L157.254 21.8712L189.039 210.086L192.797 209.459L161.012 21.244Z" fill="#E32C25"/>
<path d="M224.614 10.6328L161.013 21.2471L192.799 209.462L256.399 198.848L224.614 10.6328Z" fill="#E32C25"/>
<path d="M224.614 10.6319L268.595 3.29199H288.77L308.633 120.917V190.128L256.4 198.845L224.614 10.6319Z" fill="#E32B25"/>
<path d="M308.633 120.917L288.77 3.29199H308.633V120.917Z" fill="#E32B25"/>
</g>
<mask id="mask1_1_1193" style="mask-type:luminance" maskUnits="userSpaceOnUse" x="0" y="110" width="65" height="122">
<path d="M35.5259 231.564L64.5961 230.265L29.6573 112.88L0 110.317L35.5259 231.564Z" fill="white"/>
</mask>
<g mask="url(#mask1_1_1193)">
<path d="M20.6562 233.56L20.3068 231.497L64.5873 224.107L65.5884 230.035L20.6562 233.56Z" fill="#7B1715"/>
<path d="M63.0091 214.751L18.7289 222.141L20.3091 231.497L64.5893 224.108L63.0091 214.751Z" fill="#7A1815"/>
<path d="M61.4258 205.395L17.1455 212.785L18.7257 222.142L63.0059 214.752L61.4258 205.395Z" fill="#791814"/>
<path d="M59.8486 196.043L15.5684 203.433L17.1485 212.79L61.4288 205.4L59.8486 196.043Z" fill="#781914"/>
<path d="M58.268 186.684L13.9878 194.074L15.568 203.431L59.8482 196.041L58.268 186.684Z" fill="#761914"/>
<path d="M56.6875 177.329L12.4072 184.719L13.9874 194.075L58.2677 186.686L56.6875 177.329Z" fill="#751A13"/>
<path d="M55.1099 167.973L10.8297 175.363L12.4098 184.72L56.6901 177.33L55.1099 167.973Z" fill="#741A13"/>
<path d="M54.4954 164.345L10.2151 171.735L10.8276 175.361L55.1078 167.972L54.4954 164.345Z" fill="#741A13"/>
<path d="M53.8854 160.719L9.60516 168.109L10.2176 171.735L54.4978 164.346L53.8854 160.719Z" fill="#731A13"/>
<path d="M53.2721 157.094L8.99188 164.484L9.60432 168.11L53.8846 160.72L53.2721 157.094Z" fill="#721913"/>
<path d="M52.6559 153.465L8.37561 160.855L8.98805 164.482L53.2683 157.092L52.6559 153.465Z" fill="#711912"/>
<path d="M52.0459 149.839L7.76569 157.229L8.37812 160.856L52.6584 153.466L52.0459 149.839Z" fill="#701912"/>
<path d="M51.4326 146.214L7.15234 153.604L7.76478 157.23L52.045 149.84L51.4326 146.214Z" fill="#6F1812"/>
<path d="M50.8222 142.585L6.54193 149.975L7.15437 153.602L51.4346 146.212L50.8222 142.585Z" fill="#6E1812"/>
<path d="M50.2093 138.96L5.92908 146.35L6.54151 149.976L50.8218 142.586L50.2093 138.96Z" fill="#6D1711"/>
<path d="M49.596 135.334L5.3158 142.724L5.92823 146.351L50.2085 138.961L49.596 135.334Z" fill="#6C1711"/>
<path d="M48.9856 131.705L4.70532 139.095L5.31776 142.722L49.598 135.332L48.9856 131.705Z" fill="#6A1711"/>
<path d="M48.3698 128.08L4.0896 135.47L4.70204 139.096L48.9823 131.707L48.3698 128.08Z" fill="#691611"/>
<path d="M47.7565 124.455L3.47626 131.844L4.08869 135.471L48.3689 128.081L47.7565 124.455Z" fill="#681610"/>
<path d="M47.1461 120.826L2.86584 128.216L3.47828 131.842L47.7585 124.452L47.1461 120.826Z" fill="#671610"/>
<path d="M46.5332 117.2L2.25299 124.59L2.86543 128.217L47.1457 120.827L46.5332 117.2Z" fill="#661510"/>
<path d="M2.25176 124.588L1.64111 120.964L45.6838 113.612H45.9274L46.5351 117.199L2.25176 124.588Z" fill="#651510"/>
<path d="M1.64111 120.964L1.02753 117.336L23.3395 113.612H45.6838L1.64111 120.964Z" fill="#64140F"/>
<path d="M1.92881 118.883L0 113.843V110.317L37.5722 113.005L1.92881 118.883Z" fill="#63140F"/>
</g>
<mask id="mask2_1_1193" style="mask-type:luminance" maskUnits="userSpaceOnUse" x="0" y="0" width="273" height="113">
<path d="M272.141 3.29201L240.852 0L0 110.317L29.6573 112.88L272.141 3.29201Z" fill="white"/>
</mask>
<g mask="url(#mask2_1_1193)">
<path d="M0 110.317L0.43156 112.88H0V110.317Z" fill="#8B1D1B"/>
<path d="M0 61.2173L8.72515 112.88H0.43156L0 110.317V61.2173Z" fill="#8B1D1B"/>
<path d="M0 39.6033L4.51524 38.8503L17.0158 112.88H8.72515L0 61.2173V39.6033Z" fill="#8C1D1B"/>
<path d="M4.51526 38.8504L12.5799 37.505L25.3094 112.88H17.0158L4.51526 38.8504Z" fill="#8D1D1C"/>
<path d="M12.5798 37.5049L20.6444 36.1566L33.5883 112.815L33.2037 112.88H25.3094L12.5798 37.5049Z" fill="#8E1E1C"/>
<path d="M28.7061 34.813L20.6428 36.1587L33.5885 112.816L41.6518 111.47L28.7061 34.813Z" fill="#8F1E1C"/>
<path d="M36.77 33.4665L28.7067 34.8121L41.6524 111.469L49.7157 110.124L36.77 33.4665Z" fill="#901E1C"/>
<path d="M44.8368 32.1226L36.7735 33.4683L49.7192 110.125L57.7826 108.78L44.8368 32.1226Z" fill="#911E1D"/>
<path d="M52.9007 30.7759L44.8374 32.1216L57.7831 108.779L65.8465 107.433L52.9007 30.7759Z" fill="#921E1D"/>
<path d="M60.9642 29.4264L52.9009 30.7721L65.8466 107.429L73.9099 106.084L60.9642 29.4264Z" fill="#931F1D"/>
<path d="M69.0281 28.0825L60.9648 29.4282L73.9105 106.085L81.9738 104.74L69.0281 28.0825Z" fill="#941F1D"/>
<path d="M77.0949 26.7359L69.0316 28.0815L81.9774 104.739L90.0407 103.393L77.0949 26.7359Z" fill="#951F1E"/>
<path d="M85.1588 25.3921L77.0955 26.7378L90.0413 103.395L98.1046 102.049L85.1588 25.3921Z" fill="#961F1E"/>
<path d="M93.2227 24.0454L85.1594 25.3911L98.1052 102.048L106.168 100.703L93.2227 24.0454Z" fill="#971F1E"/>
<path d="M101.287 22.7017L93.2233 24.0474L106.169 100.705L114.232 99.3588L101.287 22.7017Z" fill="#98201E"/>
<path d="M109.353 21.3521L101.29 22.6978L114.235 99.3549L122.299 98.0092L109.353 21.3521Z" fill="#99201F"/>
<path d="M117.417 20.0054L109.354 21.3511L122.299 98.0082L130.363 96.6625L117.417 20.0054Z" fill="#9A201F"/>
<path d="M125.481 18.6616L117.418 20.0073L130.363 96.6645L138.427 95.3188L125.481 18.6616Z" fill="#9B201F"/>
<path d="M133.545 17.3148L125.481 18.6605L138.427 95.3177L146.491 93.972L133.545 17.3148Z" fill="#9D2120"/>
<path d="M141.612 15.9711L133.548 17.3168L146.494 93.9739L154.557 92.6282L141.612 15.9711Z" fill="#9E2120"/>
<path d="M149.676 14.6244L141.612 15.9701L154.558 92.6273L162.621 91.2816L149.676 14.6244Z" fill="#9F2120"/>
<path d="M157.739 13.2777L149.676 14.6234L162.621 91.2806L170.685 89.9349L157.739 13.2777Z" fill="#A02120"/>
<path d="M165.803 11.931L157.74 13.2767L170.685 89.9339L178.749 88.5882L165.803 11.931Z" fill="#A12121"/>
<path d="M173.87 10.5844L165.806 11.9301L178.752 88.5872L186.815 87.2415L173.87 10.5844Z" fill="#A22221"/>
<path d="M181.934 9.24062L173.87 10.5863L186.816 87.2435L194.879 85.8978L181.934 9.24062Z" fill="#A32221"/>
<path d="M189.998 7.89394L181.934 9.23962L194.88 85.8968L202.943 84.5511L189.998 7.89394Z" fill="#A42221"/>
<path d="M198.061 6.55019L189.998 7.89587L202.944 84.553L211.007 83.2073L198.061 6.55019Z" fill="#A52222"/>
<path d="M206.128 5.20339L198.065 6.54907L211.011 83.2062L219.074 81.8606L206.128 5.20339Z" fill="#A62222"/>
<path d="M214.192 3.85671L206.128 5.20239L219.074 81.8595L227.137 80.5139L214.192 3.85671Z" fill="#A72322"/>
<path d="M222.256 2.51015L214.192 3.85583L227.138 80.513L235.201 79.1673L222.256 2.51015Z" fill="#A82322"/>
<path d="M230.322 1.16335L222.259 2.50903L235.205 79.1662L243.268 77.8205L230.322 1.16335Z" fill="#A92323"/>
<path d="M230.324 1.16446L237.305 0H238.418L251.333 76.4779L243.268 77.8233L230.324 1.16446Z" fill="#AA2323"/>
<path d="M246.712 0L259.397 75.1325L251.333 76.4779L238.418 0H246.712Z" fill="#AB2323"/>
<path d="M255.002 0L267.462 73.7871L259.397 75.1325L246.712 0H255.002Z" fill="#AC2423"/>
<path d="M263.293 0L272.141 52.392V73.0049L267.462 73.7871L255.002 0H263.293Z" fill="#AD2424"/>
<path d="M271.587 0L272.141 3.29201V52.3919L263.293 0H271.587Z" fill="#AE2424"/>
<path d="M272.142 3.29201L271.587 0H272.142V3.29201Z" fill="#AE2424"/>
</g>
<path d="M70.9345 220.626L39.8621 117.54L266.475 14.6943L298.364 118.01L70.9345 220.626ZM48.1029 121.253L75.2266 211.246L290.085 114.304L262.236 24.0742L48.1029 121.253Z" fill="#761914"/>
<path d="M128.57 139.02C130.795 136.286 131.103 133.151 129.524 129.48C126.735 122.998 120.855 121.276 112.966 124.632L97.6002 131.167C96.4758 131.645 95.7389 132.299 95.4042 133.113C95.0695 133.928 95.14 134.897 95.6127 135.994L108.119 165.053C108.592 166.15 109.249 166.871 110.071 167.192C110.4 167.32 110.758 167.385 111.14 167.385C111.71 167.385 112.332 167.242 113.004 166.956L128.526 160.354C132.589 158.626 135.304 156.341 136.596 153.563C137.779 151.021 137.712 148.076 136.408 145.047C134.823 141.364 132.19 139.341 128.57 139.017V139.02ZM122.217 145.272C123.858 144.574 125.241 144.387 126.333 144.717C127.378 145.032 128.194 145.852 128.752 147.151C129.304 148.432 129.345 149.576 128.878 150.554C128.376 151.605 127.281 152.495 125.628 153.201L113.729 158.262C113.665 158.288 113.621 158.302 113.591 158.308C113.591 158.302 113.586 158.297 113.583 158.291L110.183 150.393L122.217 145.275V145.272ZM122.757 136.732C122.234 137.669 121.116 138.507 119.431 139.225L107.553 144.276L104.308 136.738C104.294 136.7 104.288 136.68 104.285 136.674C104.297 136.659 104.335 136.63 104.405 136.601L116.201 131.584C119.378 130.233 121.568 130.889 122.707 133.537C123.244 134.783 123.259 135.83 122.754 136.735L122.757 136.732Z" fill="#7A1716"/>
<path d="M167.977 114.158C166.65 111.076 164.539 108.843 161.873 107.708C158.894 106.439 155.312 106.62 151.51 108.239L132.034 116.522L135.108 123.663L154.789 115.29C157.496 114.137 159.763 114.963 160.852 117.491C161.286 118.498 162.39 121.921 158.38 123.628L144.772 129.416C140.606 131.187 139.55 133.84 141.349 138.016L147.491 152.284L154.675 149.229L149.041 136.143C148.915 135.845 148.938 135.786 149.235 135.661L158.03 131.92L171.776 141.953L179.799 138.542L165.47 127.942C169.935 123.908 169.727 118.232 167.974 114.158H167.977Z" fill="#7A1716"/>
<path d="M177.039 97.3635L169.854 100.42L185.263 136.209L192.447 133.153L177.039 97.3635Z" fill="#7A1716"/>
<path d="M212.522 116.178C209.266 117.564 206.638 117.724 204.489 116.668C202.302 115.594 200.432 113.195 198.77 109.337C197.103 105.461 196.648 102.443 197.385 100.109C198.104 97.8293 200.027 96.049 203.268 94.6715L217.31 88.6975L214.236 81.556L200.194 87.5301C194.933 89.7685 191.516 93.008 190.036 97.158C188.533 101.378 189.053 106.503 191.589 112.392C194.117 118.264 197.473 122.166 201.562 123.99C203.356 124.79 205.288 125.19 207.343 125.19C209.909 125.19 212.668 124.565 215.601 123.319L229.643 117.345L226.569 110.203L212.527 116.178H212.522Z" fill="#7A1716"/>
<path d="M250.235 87.0864L258.079 62.91L249.093 66.7303L243.509 83.9112L227.656 75.8475L218.786 79.6211L240.799 90.5448L232.734 116.029L241.709 112.211L247.551 93.7697L264.699 102.435L273.565 98.661L250.235 87.0864Z" fill="#7A1716"/>
<path d="M74.1668 131.914L70.3972 140.605L70.7348 141.451L72.875 146.856L76.6299 138.139L85.3139 141.991L82.8361 135.74L74.1668 131.914Z" fill="#7A1715"/>
<path d="M91.573 157.774L87.2897 146.979L78.6203 143.144L74.8508 151.841L79.1165 162.671L85.4255 178.568L97.8644 173.703L91.573 157.774Z" fill="#7A1715"/>
<g style="mix-blend-mode:screen" opacity="0.75">
<path d="M74.1668 131.914L70.3972 140.605L70.7348 141.451L72.875 146.856L76.6299 138.139L85.3139 141.991L82.8361 135.74L74.1668 131.914Z" fill="black"/>
<path d="M91.573 157.774L87.2897 146.979L78.6203 143.144L74.8508 151.841L79.1165 162.671L85.4255 178.568L97.8644 173.703L91.573 157.774Z" fill="black"/>
</g>
</svg>
