<svg width="186" height="38" viewBox="0 0 186 38" fill="none" xmlns="http://www.w3.org/2000/svg">
<g clip-path="url(#clip0_1_7534)">
<path d="M34.0453 0H4.53819C2.03182 0 0 2.03231 0 4.53928V33.4607C0 35.9677 2.03182 38 4.53819 38H34.0453C36.5517 38 38.5835 35.9677 38.5835 33.4607V4.53928C38.5835 2.03231 36.5517 0 34.0453 0Z" fill="white"/>
<path d="M61.7948 4.12415C68.8889 4.12415 71.8776 7.47149 71.8776 12.3802C71.8776 15.8608 70.3611 17.9578 67.5501 19.0736C70.4055 20.2338 72.0108 22.4653 72.0108 25.946C72.0108 30.7658 69.0222 34.2464 61.9281 34.2464H48.5445C46.849 34.2464 46.0457 33.4429 46.0457 31.7927V6.57785C46.0457 4.92639 46.849 4.12415 48.5445 4.12415H61.7948ZM51.2222 16.842H61.9294C65.0525 16.842 66.5691 15.6818 66.5691 13.2268C66.5691 10.7719 65.1858 9.29939 61.9738 9.29939H51.8022C51.4456 9.29939 51.2222 9.47837 51.2222 9.83506V16.8407V16.842ZM51.2222 28.5342C51.2222 28.8909 51.4456 29.0255 51.8022 29.0255H62.0639C65.2315 29.0255 66.7036 27.553 66.7036 25.098C66.7036 22.6431 65.1426 21.2163 62.0639 21.2163H51.2222V28.5342Z" fill="white"/>
<path d="M95.0331 4.12415C101.815 4.12415 104.715 8.31816 104.715 13.138C104.715 16.8864 102.93 20.9027 98.3352 22.1962L105.339 34.2451H99.4951L92.6244 22.5986H84.7726C84.2815 22.5986 84.0137 22.822 84.0137 23.3577V34.2464H78.7496V22.3321C78.7496 18.9403 80.1773 17.5567 83.4782 17.5567H95.212C98.2007 17.5567 99.4063 15.5041 99.4063 13.3614C99.4063 11.2187 98.1131 9.38951 95.212 9.38951H78.7052V4.12415H95.0343H95.0331Z" fill="white"/>
<path d="M116.582 4.12415V34.2451H111.318V4.12415H116.582Z" fill="white"/>
<path d="M148.659 4.12415V9.38951H137.015C131.216 9.38951 128.672 12.29 128.672 19.2069C128.672 26.1237 131.171 28.9798 137.015 28.9798H148.659V34.2451H137.015C128.227 34.2451 123.408 29.292 123.408 19.2069C123.408 9.12167 128.271 4.12415 137.015 4.12415H148.659Z" fill="white"/>
<path d="M160.482 4.12415L169.717 15.2363L179.398 4.12415H185.912L173.019 18.939L186.001 34.2451H179.577L169.583 22.2864L159.322 34.2451H152.807L166.281 18.5379L154.057 4.12415H160.482Z" fill="white"/>
<path d="M19.3064 3.91345L15.008 8.24202L15.0093 8.82974L15.0118 12.5744L19.3064 8.22552L23.5755 12.5744L23.573 8.24202L19.3064 3.91345Z" fill="#E22B26"/>
<path d="M23.5844 23.5101L23.5768 16.0284L19.3114 11.6935L15.0131 16.0284L15.0004 23.5253L15.0131 34.5422H23.5768L23.5844 23.5101Z" fill="#E22B26"/>
</g>
<defs>
<clipPath id="clip0_1_7534">
<rect width="186" height="38" fill="white"/>
</clipPath>
</defs>
</svg>
